# xmcd
#
# Track frame offsets: 
#        150
#        21451
#        53272
#        75597
#        97288
#        117586
#        151391
#        179338
#        202902
#        218966
#
# Disc length: 3539 seconds
#
# Revision: 0
# Processed by: cddbd v1.5.2PL0 Copyright (c) Steve Scherf et al.
# Submitted via: ExactAudioCopy v0.99pb4
#
DISCID=850dd10a
DTITLE=Rooster - Feel Like A Millonaire
DYEAR=1900
DGENRE=Blues
TTITLE0=Walk Right Up
TTITLE1=The Mirror
TTITLE2=Joann
TTITLE3=Stand By Me
TTITLE4=You Send Me
TTITLE5=The Love Of You
TTITLE6=L.O.V.E.
TTITLE7=Spend The Night
TTITLE8=I Feel Good
TTITLE9=Summertime
EXTD=
EXTT0=
EXTT1=
EXTT2=
EXTT3=
EXTT4=
EXTT5=
EXTT6=
EXTT7=
EXTT8=
EXTT9=
PLAYORDER=
